<svg width="27" height="25" viewBox="0 0 27 25" fill="none" xmlns="http://www.w3.org/2000/svg">
<g id="&#228;&#190;&#167;&#232;&#190;&#185;&#230;&#160;&#143;&#229;&#145;&#188;&#229;&#135;&#186;">
<path id="&#228;&#190;&#167;&#232;&#190;&#185;&#230;&#160;&#143;" fill-rule="evenodd" clip-rule="evenodd" d="M13.1879 24.7483C14.4726 25.2079 16.2681 24.7712 17.1982 23.7729L26.2606 14.0459C26.7448 13.5263 26.899 12.9569 26.7545 12.4656C26.899 11.9742 26.7448 11.4048 26.2606 10.8852L17.1982 1.15821C16.2681 0.159885 14.4726 -0.276804 13.1879 0.18284C11.9032 0.642485 11.6157 1.8244 12.5459 2.82273L21.5299 12.4656L12.5459 22.1084C11.6157 23.1067 11.9032 24.2886 13.1879 24.7483Z" fill="#BABABA"/>
<path id="&#228;&#190;&#167;&#232;&#190;&#185;&#230;&#160;&#143;_2" fill-rule="evenodd" clip-rule="evenodd" d="M1.18792 24.7483C2.47264 25.2079 4.26812 24.7712 5.19823 23.7729L14.2606 14.0459C14.7448 13.5263 14.899 12.9569 14.7545 12.4656C14.899 11.9742 14.7448 11.4048 14.2606 10.8852L5.19823 1.15821C4.26812 0.159885 2.47264 -0.276804 1.18792 0.18284C-0.0968026 0.642485 -0.384264 1.8244 0.545855 2.82273L9.52987 12.4656L0.545855 22.1084C-0.384264 23.1067 -0.0968026 24.2886 1.18792 24.7483Z" fill="#BEC4C7"/>
</g>
</svg>
