<svg width="100" height="100" viewBox="0 0 100 100" fill="none" xmlns="http://www.w3.org/2000/svg">
<g id="&#230;&#152;&#159;&#230;&#152;&#159; 1" clip-path="url(#clip0_0_442)">
<g id="Vector" filter="url(#filter0_d_0_442)">
<path d="M50 14.6735C50.6975 14.6735 51.975 14.891 52.6945 16.3485L60.6285 32.424C61.203 33.5897 62.0526 34.5981 63.1038 35.3623C64.155 36.1264 65.3764 36.6233 66.6625 36.81L84.406 39.3885C86.014 39.622 86.616 40.77 86.8315 41.4335C87.047 42.097 87.235 43.379 86.0715 44.5135L73.231 57.0295C72.3011 57.9362 71.6056 59.0555 71.2044 60.2908C70.8032 61.5261 70.7084 62.8404 70.928 64.1205L73.959 81.7925C74.1165 82.712 73.906 83.523 73.3335 84.2025C72.7395 84.907 71.867 85.3275 70.9995 85.3275C70.5275 85.3275 70.0695 85.2075 69.5995 84.96L53.7305 76.617C52.58 76.0132 51.3003 75.6972 50.001 75.696C48.707 75.696 47.4175 76.0145 46.2725 76.6165L30.402 84.96C29.938 85.204 29.467 85.3275 29.002 85.3275C28.134 85.3275 27.262 84.907 26.668 84.203C26.0955 83.5235 25.885 82.7125 26.0425 81.793L29.0735 64.122C29.2933 62.8415 29.1984 61.5268 28.7969 60.2912C28.3954 59.0556 27.6995 57.9362 26.769 57.0295L13.929 44.513C12.7655 43.3785 12.953 42.0965 13.169 41.433C13.3845 40.7695 13.986 39.622 15.5945 39.388L33.338 36.81C34.6237 36.6235 35.8446 36.1271 36.8956 35.3635C37.9466 34.5999 38.796 33.5921 39.3705 32.427L47.306 16.3485C48.025 14.891 49.3025 14.6735 50 14.6735ZM50 7.66248C46.428 7.66248 42.8555 9.52348 41.019 13.2455L33.0835 29.324C33.0117 29.4696 32.9055 29.5956 32.7742 29.691C32.6428 29.7865 32.4902 29.8486 32.3295 29.872L14.586 32.45C6.37153 33.6435 3.09103 43.739 9.03553 49.533L21.875 62.0485C22.111 62.2785 22.219 62.61 22.163 62.935L19.132 80.607C18.0215 87.081 23.1655 92.3375 29.0015 92.3375C30.541 92.3375 32.1305 91.971 33.664 91.165L49.5345 82.8215C49.6783 82.7461 49.8382 82.7068 50.0005 82.7068C50.1629 82.7068 50.3228 82.7461 50.4665 82.8215L66.337 91.165C67.871 91.9715 69.459 92.3375 70.9995 92.3375C76.835 92.3375 81.979 87.08 80.869 80.607L77.838 62.935C77.8106 62.7749 77.8225 62.6106 77.8727 62.4562C77.9228 62.3018 78.0098 62.1618 78.126 62.0485L90.9655 49.533C96.91 43.739 93.6295 33.6435 85.415 32.45L67.6715 29.8715C67.5108 29.8481 67.3582 29.786 67.2269 29.6905C67.0955 29.5951 66.9894 29.4691 66.9175 29.3235L58.982 13.245C57.1445 9.52348 53.572 7.66248 50 7.66248Z" fill="black"/>
</g>
</g>
<defs>
<filter id="filter0_d_0_442" x="2" y="7.66248" width="96.001" height="92.675" filterUnits="userSpaceOnUse" color-interpolation-filters="sRGB">
<feFlood flood-opacity="0" result="BackgroundImageFix"/>
<feColorMatrix in="SourceAlpha" type="matrix" values="0 0 0 0 0 0 0 0 0 0 0 0 0 0 0 0 0 0 127 0" result="hardAlpha"/>
<feOffset dy="4"/>
<feGaussianBlur stdDeviation="2"/>
<feComposite in2="hardAlpha" operator="out"/>
<feColorMatrix type="matrix" values="0 0 0 0 0 0 0 0 0 0 0 0 0 0 0 0 0 0 0.25 0"/>
<feBlend mode="normal" in2="BackgroundImageFix" result="effect1_dropShadow_0_442"/>
<feBlend mode="normal" in="SourceGraphic" in2="effect1_dropShadow_0_442" result="shape"/>
</filter>
<clipPath id="clip0_0_442">
<rect width="100" height="100" fill="white"/>
</clipPath>
</defs>
</svg>
